<svg width="19" height="25" viewBox="0 0 19 25" fill="none" xmlns="http://www.w3.org/2000/svg">
<path d="M17.6264 13.1796C18.0334 21.4405 10.8221 22.8687 7.43864 21.0292C7.57658 21.1116 7.29689 20.9513 7.43864 21.0292C3.16299 19.6713 2.6136 13.4591 4.39892 8.86069C5.8436 10.6206 7.10469 11.8012 10.9997 14.1275C11.1376 14.2099 9.37505 13.1363 9.51566 13.2161C12.8386 15.164 17.3211 13.7266 17.6264 13.1796Z" fill="#4E45DE"/>
<path d="M17.488 14.4474L17.488 14.4489C17.1458 23.8489 3.85506 23.8516 3.5107 14.4497C3.50398 14.245 3.5 14.0415 3.5 13.836C3.5 8.20993 6.31256 3.29944 10.5 0.591317C14.6874 3.29944 17.5 8.20993 17.5 13.836C17.5 14.0418 17.496 14.2446 17.488 14.4474Z" stroke="black"/>
</svg>
